<svg width="475" height="1050" viewBox="0 0 475 1050" fill="none" xmlns="http://www.w3.org/2000/svg">
<g opacity="0.2">
<path fill-rule="evenodd" clip-rule="evenodd" d="M542.18 394.482C596.717 288.662 602.075 228.561 560.963 119.731C610.031 217.738 620.605 288.11 563.175 406.754C613.262 423.253 656.573 454.665 687.856 495.736C666.224 508.441 625.267 519.101 588.196 528.749C571.454 533.106 555.505 537.257 542.486 541.297C473.827 563.826 460.921 573.179 422.813 600.794C420.565 602.424 418.229 604.116 415.789 605.879C415.995 571.42 425.972 548.701 463.544 497.316C501.509 454.383 518.849 433.611 539.285 400.219L539.921 398.954L542.18 394.482ZM521.542 396.802C508.755 394.854 495.66 393.844 482.329 393.844C421.077 393.844 364.807 415.173 320.54 450.808C321.261 538.452 335.115 599.049 382.042 678.785C360.136 612.466 376.426 575.054 429.161 508.141C485.393 444.293 512.441 413.159 521.542 396.802ZM306.633 404.434C304.528 422.432 303.359 441.71 303.35 462.457C300.789 565.724 320.326 625.604 369.944 718.263C434.023 823.647 459.21 869.987 461.2 909.381C461.197 909.381 461.195 909.381 461.192 909.38C462.1 926.548 459.365 943.779 452.718 963.086C437.175 1006.46 409.956 1023.72 351.159 1050C410.738 1004.78 439.758 978.131 427.248 911.51L425.014 903.849C312.567 878.363 227.981 779.489 224.262 660.234L224.13 660.318C124.949 587.976 77.3225 563.337 0 532.971C84.1331 556.879 134.376 576.24 224.13 640.465V640.478C292.639 688.089 329.325 720.329 395.412 802.95C353.466 729.031 312.969 685.549 227.981 607.391C235.679 563.23 254.597 522.924 281.691 489.517C281.301 456.92 283.074 428.238 288.122 396.392C301.812 325.396 328.25 266.978 383.632 201.87C383.061 202.828 382.488 203.79 381.913 204.754C352.701 253.746 318.69 310.788 307.295 399.05L307.082 399.128C306.928 400.909 306.778 402.677 306.633 404.434ZM581.556 890.478C674.904 851.587 740.524 759.476 740.524 652.038C740.524 611.168 731.028 572.516 714.122 538.168C788.532 470.094 822.272 395.555 836.032 261.724C815.05 365.042 773.403 455.03 695.26 505.965C695.254 505.956 695.248 505.948 695.243 505.94C684.078 513.382 659.103 524.126 628.82 537.152C584.838 556.071 529.66 579.807 489.332 605.242C418.668 649.811 404.947 681.975 482.328 767.291C538.467 824.808 568.523 857.611 581.556 890.478Z" fill="url(#paint0_linear_16_1680)"/>
<path d="M78.9761 391.055C62.305 492.006 85.0216 561.127 188.263 596.199C199.377 498.489 160.478 429.49 78.9761 391.055Z" fill="url(#paint1_linear_16_1680)"/>
<path d="M328.335 372.977C428.628 381.435 494.63 353.759 520.953 249.784C424.274 246.521 359.655 290.055 328.335 372.977Z" fill="url(#paint2_linear_16_1680)"/>
<path d="M364.468 170.863C436.561 143.732 473.075 102.903 457.079 22.3905C389.191 51.9243 358.848 103.258 364.468 170.863Z" fill="url(#paint3_linear_16_1680)"/>
<path d="M302.119 298.079C337.56 229.687 337.391 174.912 271.644 125.765C240.936 193.13 252.719 251.585 302.119 298.079Z" fill="url(#paint4_linear_16_1680)"/>
<path d="M297.068 340.733C253.553 291.492 209.917 274.775 150.584 311.969C194.739 357.127 244.876 365.736 297.068 340.733Z" fill="url(#paint5_linear_16_1680)"/>
<path d="M475.619 133.438C479.511 196.474 502.71 234.927 569.661 241.79C562.873 181.471 529.954 145.323 475.619 133.438Z" fill="url(#paint6_linear_16_1680)"/>
</g>
<defs>
<linearGradient id="paint0_linear_16_1680" x1="418.016" y1="119.731" x2="418.016" y2="1050" gradientUnits="userSpaceOnUse">
<stop offset="0.3125" stop-color="#CB4D64"/>
<stop offset="1" stop-color="#321E1F"/>
</linearGradient>
<linearGradient id="paint1_linear_16_1680" x1="132.073" y1="391.055" x2="132.073" y2="596.199" gradientUnits="userSpaceOnUse">
<stop offset="0.3125" stop-color="#CB4D64"/>
<stop offset="1" stop-color="#321E1F"/>
</linearGradient>
<linearGradient id="paint2_linear_16_1680" x1="324.186" y1="320.911" x2="525.344" y2="304.882" gradientUnits="userSpaceOnUse">
<stop offset="0.3125" stop-color="#CB4D64"/>
<stop offset="1" stop-color="#321E1F"/>
</linearGradient>
<linearGradient id="paint3_linear_16_1680" x1="344.481" y1="136.245" x2="478.23" y2="59.0249" gradientUnits="userSpaceOnUse">
<stop offset="0.3125" stop-color="#CB4D64"/>
<stop offset="1" stop-color="#321E1F"/>
</linearGradient>
<linearGradient id="paint4_linear_16_1680" x1="264.105" y1="285.716" x2="311.872" y2="138.848" gradientUnits="userSpaceOnUse">
<stop offset="0.3125" stop-color="#CB4D64"/>
<stop offset="1" stop-color="#321E1F"/>
</linearGradient>
<linearGradient id="paint5_linear_16_1680" x1="275.536" y1="367.176" x2="173.37" y2="283.986" gradientUnits="userSpaceOnUse">
<stop offset="0.3125" stop-color="#CB4D64"/>
<stop offset="1" stop-color="#321E1F"/>
</linearGradient>
<linearGradient id="paint6_linear_16_1680" x1="507.564" y1="126.116" x2="535.855" y2="249.539" gradientUnits="userSpaceOnUse">
<stop offset="0.3125" stop-color="#CB4D64"/>
<stop offset="1" stop-color="#321E1F"/>
</linearGradient>
</defs>
</svg>
