<svg width="77" height="87" viewBox="0 0 77 87" fill="none" xmlns="http://www.w3.org/2000/svg">
<path fill-rule="evenodd" clip-rule="evenodd" d="M44.6197 32.4646C49.108 23.7559 49.5489 18.8099 46.1655 9.85349C50.2036 17.9191 51.0738 23.7105 46.3475 33.4745C50.4695 34.8323 54.0339 37.4174 56.6083 40.7974C54.8281 41.843 51.4575 42.7202 48.4067 43.5142C47.0289 43.8728 45.7163 44.2144 44.6449 44.5469C38.9946 46.401 37.9324 47.1707 34.7963 49.4434C34.6112 49.5774 34.419 49.7168 34.2182 49.8618C34.2351 47.0259 35.0562 45.1562 38.1483 40.9274C41.2727 37.3942 42.6997 35.6847 44.3815 32.9367L44.4337 32.8327L44.6197 32.4646ZM42.9212 32.6555C41.8689 32.4952 40.7913 32.412 39.6942 32.412C34.6534 32.412 30.0225 34.1674 26.3795 37.1001C26.4388 44.3128 27.579 49.2998 31.4409 55.8618C29.6381 50.4039 30.9787 47.325 35.3186 41.8182C39.9463 36.5639 42.1722 34.0017 42.9212 32.6555ZM25.2349 33.284C25.0617 34.765 24.9656 36.3513 24.9648 38.0584C24.754 46.5571 26.3618 51.4851 30.4453 59.1107C35.7188 67.7835 37.7916 71.5971 37.9553 74.8392C37.9551 74.8391 37.9549 74.8391 37.9547 74.8391C38.0294 76.252 37.8043 77.67 37.2573 79.2589C35.9782 82.8288 33.7381 84.2491 28.8993 86.4117C33.8025 82.6904 36.1908 80.4971 35.1612 75.0144L34.9773 74.3839C25.7234 72.2864 18.7622 64.1495 18.4561 54.3353L18.4452 54.3421C10.2829 48.3886 6.3634 46.3609 0 43.8619C6.92389 45.8294 11.0587 47.4228 18.4452 52.7084V52.7091C24.0833 56.6273 27.1024 59.2806 32.5411 66.08C29.0892 59.9968 25.7564 56.4184 18.7621 49.9862C19.3957 46.352 20.9526 43.0349 23.1823 40.2857C23.1502 37.6031 23.2961 35.2426 23.7116 32.6218C24.8382 26.7791 27.014 21.9715 31.5717 16.6132L31.4302 16.8506C29.0263 20.8825 26.2273 25.5768 25.2895 32.8405L25.2719 32.8469C25.2592 32.9936 25.2469 33.1393 25.2349 33.284ZM47.8603 73.2835C55.5425 70.0829 60.9428 62.5024 60.9428 53.6607C60.9428 50.2972 60.1613 47.1162 58.77 44.2894C64.8937 38.6872 67.6705 32.5528 68.8028 21.539C67.0761 30.0417 63.6487 37.4475 57.2177 41.6392C57.2173 41.6385 57.2168 41.6378 57.2163 41.6371C56.2974 42.2496 54.2421 43.1338 51.75 44.2058C48.1304 45.7628 43.5894 47.7162 40.2705 49.8094C34.4551 53.4773 33.3259 56.1242 39.6941 63.1455C44.3142 67.879 46.7877 70.5786 47.8603 73.2835Z" fill="url(#paint0_linear_2_4)"/>
<path d="M6.49946 32.1826C5.12748 40.4906 6.99699 46.179 15.4934 49.0653C16.4081 41.0241 13.2068 35.3457 6.49946 32.1826Z" fill="url(#paint1_linear_2_4)"/>
<path d="M59.8275 15.9835C56.728 23.0905 57.1133 28.5905 64.0468 33.0844C66.6778 26.1123 65.1014 20.3208 59.8275 15.9835Z" fill="url(#paint2_linear_2_4)"/>
<path d="M27.021 30.6948C35.2747 31.3909 40.7065 29.1132 42.8728 20.5564C34.9164 20.2879 29.5985 23.8706 27.021 30.6948Z" fill="url(#paint3_linear_2_4)"/>
<path d="M29.9945 14.0615C35.9276 11.8287 38.9326 8.46862 37.6162 1.84269C32.0292 4.27323 29.532 8.49782 29.9945 14.0615Z" fill="url(#paint4_linear_2_4)"/>
<path d="M24.8634 24.5309C27.7801 18.9025 27.7662 14.3947 22.3554 10.35C19.8283 15.8939 20.798 20.7046 24.8634 24.5309Z" fill="url(#paint5_linear_2_4)"/>
<path d="M24.4477 28.0412C20.8666 23.9888 17.2755 22.6131 12.3926 25.674C16.0263 29.3904 20.1525 30.0988 24.4477 28.0412Z" fill="url(#paint6_linear_2_4)"/>
<path d="M50.2718 19.5258C56.0713 18.6348 59.4338 16.1644 59.5049 9.91203C53.9811 11.0481 50.9138 14.3984 50.2718 19.5258Z" fill="url(#paint7_linear_2_4)"/>
<path d="M39.1419 10.9815C39.4621 16.1691 41.3714 19.3337 46.8812 19.8985C46.3226 14.9345 43.6135 11.9596 39.1419 10.9815Z" fill="url(#paint8_linear_2_4)"/>
<path d="M40.8465 0.56651C40.6573 4.91256 41.9685 7.71434 46.505 8.66851C46.4761 4.4876 44.4825 1.77345 40.8465 0.56651Z" fill="url(#paint9_linear_2_4)"/>
<path d="M76.8814 39.3345C70.9192 36.5572 66.2469 36.7687 62.2906 42.5546C68.1482 44.9319 73.0927 43.7163 76.8814 39.3345Z" fill="url(#paint10_linear_2_4)"/>
<defs>
<linearGradient id="paint0_linear_2_4" x1="34.4014" y1="9.85349" x2="34.4014" y2="86.4117" gradientUnits="userSpaceOnUse">
<stop offset="0.3125" stop-color="#CB4D64"/>
<stop offset="1" stop-color="#321E1F"/>
</linearGradient>
<linearGradient id="paint1_linear_2_4" x1="10.8692" y1="32.1826" x2="10.8692" y2="49.0653" gradientUnits="userSpaceOnUse">
<stop offset="0.3125" stop-color="#CB4D64"/>
<stop offset="1" stop-color="#321E1F"/>
</linearGradient>
<linearGradient id="paint2_linear_2_4" x1="63.7283" y1="16.9696" x2="59.9187" y2="32.0409" gradientUnits="userSpaceOnUse">
<stop offset="0.3125" stop-color="#CB4D64"/>
<stop offset="1" stop-color="#321E1F"/>
</linearGradient>
<linearGradient id="paint3_linear_2_4" x1="26.6795" y1="26.41" x2="43.2342" y2="25.0908" gradientUnits="userSpaceOnUse">
<stop offset="0.3125" stop-color="#CB4D64"/>
<stop offset="1" stop-color="#321E1F"/>
</linearGradient>
<linearGradient id="paint4_linear_2_4" x1="28.3497" y1="11.2126" x2="39.3568" y2="4.85759" gradientUnits="userSpaceOnUse">
<stop offset="0.3125" stop-color="#CB4D64"/>
<stop offset="1" stop-color="#321E1F"/>
</linearGradient>
<linearGradient id="paint5_linear_2_4" x1="21.735" y1="23.5135" x2="25.666" y2="11.4267" gradientUnits="userSpaceOnUse">
<stop offset="0.3125" stop-color="#CB4D64"/>
<stop offset="1" stop-color="#321E1F"/>
</linearGradient>
<linearGradient id="paint6_linear_2_4" x1="22.6757" y1="30.2174" x2="14.2678" y2="23.3711" gradientUnits="userSpaceOnUse">
<stop offset="0.3125" stop-color="#CB4D64"/>
<stop offset="1" stop-color="#321E1F"/>
</linearGradient>
<linearGradient id="paint7_linear_2_4" x1="49.3252" y1="16.6318" x2="60.5066" y2="12.9747" gradientUnits="userSpaceOnUse">
<stop offset="0.3125" stop-color="#CB4D64"/>
<stop offset="1" stop-color="#321E1F"/>
</linearGradient>
<linearGradient id="paint8_linear_2_4" x1="41.7709" y1="10.3789" x2="44.0991" y2="20.5362" gradientUnits="userSpaceOnUse">
<stop offset="0.3125" stop-color="#CB4D64"/>
<stop offset="1" stop-color="#321E1F"/>
</linearGradient>
<linearGradient id="paint9_linear_2_4" x1="43.0877" y1="0.295889" x2="44.1332" y2="8.95489" gradientUnits="userSpaceOnUse">
<stop offset="0.3125" stop-color="#CB4D64"/>
<stop offset="1" stop-color="#321E1F"/>
</linearGradient>
<linearGradient id="paint10_linear_2_4" x1="75.9635" y1="42.622" x2="63.262" y2="39.0756" gradientUnits="userSpaceOnUse">
<stop offset="0.3125" stop-color="#CB4D64"/>
<stop offset="1" stop-color="#321E1F"/>
</linearGradient>
</defs>
</svg>
