<svg width="36" height="36" viewBox="0 0 36 36" fill="none" xmlns="http://www.w3.org/2000/svg">
<path d="M17.6006 13.0182C15.0774 13.0182 13.0182 15.0773 13.0182 17.6005C13.0182 20.1237 15.0774 22.1829 17.6006 22.1829C20.1238 22.1829 22.1829 20.1237 22.1829 17.6005C22.1829 15.0773 20.1238 13.0182 17.6006 13.0182ZM31.3441 17.6005C31.3441 15.703 31.3613 13.8226 31.2548 11.9285C31.1482 9.7284 30.6463 7.77584 29.0375 6.16703C27.4253 4.55479 25.4761 4.05634 23.2761 3.94978C21.3785 3.84321 19.4981 3.8604 17.604 3.8604C15.7064 3.8604 13.8261 3.84321 11.932 3.94978C9.73188 4.05634 7.77932 4.55823 6.17051 6.16703C4.55827 7.77927 4.05982 9.7284 3.95325 11.9285C3.84669 13.826 3.86388 15.7064 3.86388 17.6005C3.86388 19.4947 3.84669 21.3785 3.95325 23.2726C4.05982 25.4727 4.56171 27.4252 6.17051 29.034C7.78275 30.6463 9.73188 31.1447 11.932 31.2513C13.8295 31.3579 15.7099 31.3407 17.604 31.3407C19.5016 31.3407 21.3819 31.3579 23.2761 31.2513C25.4761 31.1447 27.4287 30.6428 29.0375 29.034C30.6497 27.4218 31.1482 25.4727 31.2548 23.2726C31.3648 21.3785 31.3441 19.4981 31.3441 17.6005ZM17.6006 24.6511C13.6989 24.6511 10.55 21.5022 10.55 17.6005C10.55 13.6988 13.6989 10.55 17.6006 10.55C21.5023 10.55 24.6511 13.6988 24.6511 17.6005C24.6511 21.5022 21.5023 24.6511 17.6006 24.6511ZM24.9399 11.9078C24.0289 11.9078 23.2933 11.1722 23.2933 10.2612C23.2933 9.35026 24.0289 8.61461 24.9399 8.61461C25.8508 8.61461 26.5865 9.35026 26.5865 10.2612C26.5868 10.4775 26.5444 10.6918 26.4617 10.8917C26.379 11.0916 26.2578 11.2732 26.1048 11.4262C25.9519 11.5791 25.7702 11.7004 25.5703 11.7831C25.3704 11.8657 25.1562 11.9081 24.9399 11.9078Z" fill="#CB4D64"/>
</svg>
