<svg width="37" height="33" viewBox="0 0 37 33" fill="none" xmlns="http://www.w3.org/2000/svg">
<path d="M34.6389 5.8213C34.8741 5.03065 34.6389 4.44873 33.5076 4.44873H29.7641C28.8107 4.44873 28.3721 4.94842 28.137 5.50504C28.137 5.50504 26.2303 10.1288 23.5354 13.1269C22.6647 13.9935 22.2643 14.2718 21.7876 14.2718C21.5524 14.2718 21.1901 13.9935 21.1901 13.2028V5.8213C21.1901 4.87252 20.9232 4.44873 20.1351 4.44873H14.2496C13.6522 4.44873 13.2963 4.89149 13.2963 5.30263C13.2963 6.20081 14.6437 6.40954 14.7835 8.93963V14.4299C14.7835 15.6317 14.5674 15.8531 14.0907 15.8531C12.8196 15.8531 9.73069 11.2104 7.90023 5.8972C7.5316 4.86619 7.16932 4.44873 6.2096 4.44873H2.46605C1.39829 4.44873 1.18219 4.94842 1.18219 5.50504C1.18219 6.49177 2.45334 11.3938 7.09941 17.8708C10.1947 22.2921 14.5547 24.6894 18.5207 24.6894C20.9041 24.6894 21.1965 24.1581 21.1965 23.2409C21.1965 19.0157 20.9804 18.6172 22.1753 18.6172C22.7282 18.6172 23.6816 18.8955 25.9061 21.0271C28.4484 23.5572 28.8679 24.6894 30.2916 24.6894H34.0351C35.1029 24.6894 35.6431 24.1581 35.3317 23.1081C34.6199 20.9006 29.8086 16.3591 29.5925 16.0555C29.0395 15.3471 29.1984 15.0308 29.5925 14.3983C29.5988 14.392 34.1686 7.99085 34.6389 5.8213Z" fill="#CB4D64"/>
</svg>
