<svg width="27" height="27" viewBox="0 0 27 27" fill="none" xmlns="http://www.w3.org/2000/svg">
<path d="M11.1375 0H9.61875L8.60625 3.88125L7.59375 0H5.90625C6.24375 1.0125 6.58125 1.85625 6.91875 2.86875C7.425 4.21875 7.7625 5.4 7.7625 6.075V10.125H9.28125V6.075L11.1375 0ZM15.1875 7.59375V5.0625C15.1875 4.21875 15.0187 3.7125 14.6812 3.20625C14.3438 2.7 13.8375 2.53125 13.1625 2.53125C12.4875 2.53125 11.9813 2.86875 11.6438 3.375C11.3063 3.7125 11.1375 4.21875 11.1375 5.0625V7.7625C11.1375 8.60625 11.3063 9.1125 11.6438 9.45C11.9813 9.95625 12.4875 10.125 13.1625 10.125C13.8375 10.125 14.3438 9.7875 14.6812 9.28125C15.0187 9.1125 15.1875 8.4375 15.1875 7.59375ZM13.8375 7.93125C13.8375 8.60625 13.6688 8.94375 13.1625 8.94375C12.6563 8.94375 12.4875 8.60625 12.4875 7.93125V4.725C12.4875 4.05 12.6563 3.7125 13.1625 3.7125C13.6688 3.7125 13.8375 4.05 13.8375 4.725V7.93125ZM20.25 10.125V2.53125H18.9V8.26875C18.5625 8.775 18.3937 8.94375 18.0562 8.94375C17.8875 8.94375 17.7188 8.775 17.7188 8.60625V2.53125H16.3687V8.4375C16.3687 8.94375 16.3688 9.28125 16.5375 9.61875C16.5375 9.95625 16.875 10.125 17.3813 10.125C17.8875 10.125 18.3937 9.7875 18.9 9.28125V10.125H20.25Z" fill="#CB4D64"/>
<path d="M20.925 17.7188C20.4187 17.7188 20.25 18.0563 20.25 18.7313V19.4062H21.6V18.7313C21.6 18.0563 21.4313 17.7188 20.925 17.7188Z" fill="#CB4D64"/>
<path d="M16.031 17.7188C15.8623 17.7188 15.5248 17.8875 15.356 18.0562V22.6125C15.5248 22.7812 15.8623 22.95 16.031 22.95C16.3685 22.95 16.5373 22.6125 16.5373 21.9375V18.7313C16.5373 18.0563 16.3685 17.7188 16.031 17.7188Z" fill="#CB4D64"/>
<path d="M24.3002 14.0063C23.9627 12.8251 22.9502 11.8126 21.9377 11.8126C19.2377 11.4751 16.369 11.4751 13.5002 11.4751C10.6315 11.4751 7.93148 11.4751 5.06273 11.8126C4.05023 11.8126 3.03773 12.8251 2.70023 14.0063C2.36273 15.6938 2.36273 17.5501 2.36273 19.2376C2.36273 20.9251 2.36273 22.7813 2.70023 24.4688C3.03773 25.6501 3.88148 26.4938 5.06273 26.6626C7.93148 27.0001 10.6315 27.0001 13.5002 27.0001C16.369 27.0001 19.069 27.0001 21.9377 26.6626C23.119 26.4938 24.1315 25.6501 24.3002 24.4688C24.6377 22.7813 24.6377 20.9251 24.6377 19.2376C24.6377 17.5501 24.6377 15.6938 24.3002 14.0063ZM8.77523 15.5251H7.08773V24.1313H5.56898V15.5251H4.05023V14.0063H8.77523V15.5251ZM12.8252 24.1313H11.4752V23.2876C10.969 23.9626 10.4627 24.1313 9.95648 24.1313C9.45023 24.1313 9.28148 23.9626 9.11273 23.6251C9.11273 23.4563 8.94398 23.1188 8.94398 22.4438V16.5376H10.294V22.4438C10.294 22.6126 10.4627 22.7813 10.6315 22.7813C10.969 22.7813 11.1377 22.6126 11.4752 22.1063V16.5376H12.8252V24.1313ZM17.8877 21.7688C17.8877 22.4438 17.8877 22.9501 17.719 23.2876C17.5502 23.7938 17.2127 24.1313 16.7065 24.1313C16.2002 24.1313 15.694 23.7938 15.3565 23.2876V23.9626H14.0065V14.0063H15.3565V17.2126C15.8627 16.7063 16.2002 16.3688 16.7065 16.3688C17.2127 16.3688 17.5502 16.7063 17.719 17.2126C17.8877 17.5501 17.8877 18.0563 17.8877 18.7313V21.7688ZM22.9502 20.5876H20.2502V21.9376C20.2502 22.6126 20.419 22.9501 20.9252 22.9501C21.2627 22.9501 21.4315 22.7813 21.6002 22.4438V21.6001H22.9502V22.6126C22.9502 22.9501 22.7815 23.1188 22.6127 23.4563C22.2752 23.9626 21.769 24.3001 20.9252 24.3001C20.2502 24.3001 19.744 23.9626 19.2377 23.4563C18.9002 23.1188 18.7315 22.4438 18.7315 21.7688V19.2376C18.7315 18.3938 18.9002 17.8876 19.069 17.5501C19.4065 17.0438 19.9127 16.7063 20.7565 16.7063C21.4315 16.7063 21.9377 17.0438 22.2752 17.5501C22.6127 17.8876 22.6127 18.5626 22.6127 19.2376V20.5876H22.9502Z" fill="#CB4D64"/>
</svg>
